<svg height="512pt" viewBox="0 -82 512.00114 512" width="512pt" xmlns="http://www.w3.org/2000/svg"><path d="m370.328125 209.660156c0 4.445313-.21875 8.851563-.664063 13.183594-.5625 5.640625-1.488281 11.179688-2.746093 16.585938-3.507813 15.066406-9.636719 29.121093-17.851563 41.679687-4.203125 6.410156-8.949218 12.417969-14.179687 17.980469-23.773438 25.269531-57.507813 41.054687-94.929688 41.054687-59.679687 0-110-40.140625-125.46875-94.914062-2.039062-7.246094-3.472656-14.746094-4.242187-22.441407-.4375-4.320312-.65625-8.691406-.65625-13.128906 0-14.035156 2.214844-27.550781 6.3125-40.210937 1.738281-5.371094 3.808594-10.585938 6.203125-15.625 9.121093-19.273438 22.832031-35.945313 39.71875-48.613281 4.160156-3.125 8.507812-6.007813 13.035156-8.613282 19.160156-11.078125 41.390625-17.417968 65.101563-17.417968 53.375 0 99.265624 32.109374 119.433593 78.089843 2.082031 4.746094 3.890625 9.640625 5.390625 14.667969 3.609375 11.945312 5.542969 24.605469 5.542969 37.722656zm0 0" fill="#a7c7d3"/><g fill="#89b4c9"><path d="m199.042969 96.597656c-7.769531 0-15.386719.6875-22.78125 1.988282-2.351563.417968-4.683594.894531-6.992188 1.4375.863281-.5625 1.738281-1.113282 2.613281-1.644532.132813-.09375.269532-.175781.40625-.25.851563-.519531 1.707032-1.03125 2.570313-1.53125 19.160156-11.078125 41.390625-17.417968 65.101563-17.417968 53.375 0 99.265624 32.109374 119.433593 78.089843-14.5625 5.015625-29.742187 7.878907-45.21875 8.546875-21.921875-41.1875-65.261719-69.21875-115.132812-69.21875zm0 0"/><path d="m302.480469 306.503906c10.976562-1.644531 21.792969-4.125 32.40625-7.414062-17.257813 18.34375-39.78125 31.691406-65.144531 37.628906 8.875-5.746094 17.007812-12.535156 24.226562-20.210938 3.007812-3.183593 5.847656-6.527343 8.511719-10.003906zm0 0"/><path d="m366.917969 239.429688c-3.507813 15.066406-9.636719 29.121093-17.851563 41.679687-2.039062-1.429687-4.722656-1.867187-7.21875-.917969-9.074218 3.425782-18.320312 6.183594-27.734375 8.265625 5.261719-9.847656 9.289063-20.449219 11.890625-31.609375.625-2.664062 1.152344-5.351562 1.613282-8.078125 13.34375-1.96875 26.472656-5.082031 39.300781-9.339843zm0 0"/><path d="m370.328125 209.660156c0 4.445313-.21875 8.851563-.664063 13.183594-1.175781-.167969-2.414062-.054688-3.609374.375-11.976563 4.238281-24.273438 7.402344-36.765626 9.472656.082032-1.863281.125-3.738281.125-5.609375 0-13.121093-1.933593-25.78125-5.546874-37.722656-.839844-2.8125-1.777344-5.59375-2.808594-8.320313 14.941406-1.164062 29.597656-4.207031 43.726562-9.101562 3.609375 11.945312 5.542969 24.605469 5.542969 37.722656zm0 0"/></g><path d="m178.378906 48.488281 13.511719 39.847657c10.226563-4.054688 43.097656-15.589844 83.1875-4.359376 40.757813 11.417969 63.015625 39.089844 69.519531 47.847657l40.820313-69.992188c-11.914063-11.449219-52.746094-47.828125-116.804688-53.5-48.027343-4.253906-74.4375 8.320313-88.347656 27.320313-2.703125 3.691406-3.355469 8.503906-1.886719 12.835937zm0 0" fill="#fd82ac"/><path d="m268.613281 8.332031c-10.742187-.949219-20.394531-1.054687-29.078125-.4375 1.957032.121094 3.9375.257813 5.972656.4375 28.671876 2.539063 52.691407 11.230469 71.546876 21.085938 26.78125 13.992187 36.429687 47.554687 21.199218 73.667969l-7.5625 12.960937c6.898438 6.664063 11.488282 12.527344 13.90625 15.777344l40.820313-69.992188c-11.914063-11.449219-52.746094-47.828125-116.804688-53.5zm0 0" fill="#fd6096"/><path d="m452.695312 316.121094-108.097656-184.296875 40.820313-69.992188c7.691406 6.257813 21.515625 19.222657 30.980469 40.289063 8.121093 18.078125 9.738281 34.796875 9.644531 46.203125-.058594 6.609375 1.203125 13.167969 3.761719 19.261719 22.976562 54.742187 37.074218 88.335937 61.179687 145.769531zm0 0" fill="#7f7ce8"/><path d="m429.800781 167.585938c-2.558593-6.09375-3.816406-12.652344-3.757812-19.261719.09375-11.40625-1.523438-28.125-9.644531-46.203125-9.464844-21.066406-23.289063-34.03125-30.980469-40.289063l-8.59375 14.734375c5.566406 6.636719 11.339843 15.09375 16.039062 25.554688 8.121094 18.078125 9.738281 34.796875 9.640625 46.203125-.054687 6.609375 1.203125 13.167969 3.761719 19.261719 22.976563 54.742187 37.074219 88.335937 61.179687 145.773437l-15.707031 1.132813.957031 1.628906 38.289063-2.761719c-24.105469-57.4375-38.207031-91.03125-61.183594-145.773437zm0 0" fill="#6666d3"/><path d="m147.796875 81.808594-25.980469-2.5c-13.242187-1.273438-22.945312-13.039063-21.671875-26.28125l.535157-5.574219c1.273437-13.246094 13.042968-22.953125 26.289062-21.679687l25.976562 2.5c13.242188 1.273437 22.945313 13.042968 21.675782 26.285156l-.535156 5.574218c-1.273438 13.246094-13.042969 22.949219-26.289063 21.675782zm0 0" fill="#fedfc5"/><path d="m174.085938 60.125.53125-5.550781c.765624-7.957031-2.429688-15.375-7.96875-20.3125l-64.59375 30.714843c3.390624 7.742188 10.753906 13.46875 19.757812 14.332032l17.90625 1.726562 30.769531-10.363281c1.945313-3.089844 3.222657-6.664063 3.597657-10.546875zm0 0" fill="#fecbaa"/><path d="m188.285156 40.917969-39.449218 20.914062 14.296874 35.628907 51.777344-15.867188" fill="#fd82ac"/><path d="m148.835938 61.832031-139.140626 66.160157c-3.042968 1.445312-2.875 5.832031.265626 7.046874l14.132812 5.453126c3.398438 1.316406 7.148438 1.394531 10.601562.234374l128.4375-43.261718zm0 0" fill="#fedfc5"/><path d="m428.496094 340.140625 24.199218-24.019531 38.289063-2.761719v26.78125zm0 0" fill="#4f7693"/><path d="m504.496094 332.636719h-6.007813v-19.277344c0-.058594-.007812-.113281-.011719-.167969 0-.113281-.007812-.230468-.015624-.34375-.011719-.164062-.027344-.328125-.050782-.492187-.015625-.113281-.03125-.226563-.050781-.339844-.03125-.167969-.070313-.335937-.109375-.5-.027344-.105469-.054688-.210937-.085938-.316406-.054687-.183594-.121093-.363281-.191406-.546875-.023437-.066406-.039062-.132813-.070312-.199219l-61.179688-145.769531c-2.15625-5.140625-3.226562-10.621094-3.175781-16.296875.144531-17.199219-3.324219-33.800781-10.304687-49.339844-7.414063-16.503906-18.761719-31.296875-32.824219-42.816406-3.523438-3.375-7.09375-6.550781-10.914063-9.699219-3.195312-2.636719-7.925781-2.179688-10.5625 1.019531-2.636718 3.195313-2.183594 7.925781 1.019532 10.5625 2.046874 1.691407 4.019531 3.386719 5.949218 5.125l-32.355468 55.476563c-25.289063-28.816406-62.355469-47.039063-103.597657-47.039063-8.976562 0-17.753906.875-26.257812 2.523438-.144531.019531-.285157.046875-.429688.082031-9.21875 1.816406-18.117187 4.550781-26.582031 8.113281l-19.160156 5.871094-9.214844-22.964844 33.484375-17.753906c3.664063-1.941406 5.058594-6.484375 3.117187-10.148437-.792968-1.492188-2.019531-2.601563-3.441406-3.265626 15.386719-15.304687 41.015625-21.464843 76.476563-18.328124 26.625 2.359374 52.125 10.480468 75.785156 24.136718 3.589844 2.070313 8.179687.84375 10.253906-2.746094 2.070313-3.589843.839844-8.179687-2.75-10.253906-25.570312-14.757812-53.144531-23.535156-81.964843-26.085937-45.519532-4.027344-77.4375 6.191406-95.070313 30.375-5.167969-5.785157-12.414063-9.648438-20.539063-10.425781l-25.992187-2.5c-8.398437-.8125-16.609375 1.699218-23.121094 7.074218-6.507812 5.375-10.535156 12.957032-11.339843 21.347656l-.539063 5.570313c-.859375 8.984375 2.222656 17.6875 7.988281 24.128906l-94.1875 44.785157c-4.097656 1.949218-6.636718 6.136718-6.4648435 10.671874.1718755 4.53125 3.0156255 8.519532 7.2460935 10.152344l14.132813 5.457032c2.671875 1.03125 5.5 1.546874 8.328125 1.546874 2.492187 0 4.984375-.402343 7.375-1.207031l105.144531-35.414062c-12.722656 12.804687-22.953125 28.09375-29.90625 45.066406-.214844.410156-.390625.84375-.523437 1.285156-6.269532 15.753907-9.71875 32.925781-9.71875 50.886719 0 7.339844.578124 14.539062 1.6875 21.570312.027343.324219.085937.640626.15625.953126 7.234374 43.898437 35.230468 80.878906 73.535156 100.453124h-14.332032c-4.144531 0-7.503906 3.359376-7.503906 7.503907s3.359375 7.503906 7.503906 7.503906h341.363282c4.144531 0 7.503906-3.359375 7.503906-7.503906s-3.359375-7.5-7.503906-7.5zm-94.945313-227.441407c6.089844 13.554688 9.113281 28.042969 8.984375 43.066407-.0625 7.722656 1.398438 15.199219 4.347656 22.226562l57.136719 136.136719-17.113281 1.234375-6.101562.4375-91.332032-155.714844c-3.378906-7.414062-7.398437-14.472656-11.980468-21.117187l33.796874-57.941406c9.34375 9.054687 16.957032 19.863281 22.261719 31.671874zm-69.765625 176.074219c-22.476562 8.199219-46.105468 12.367188-70.277344 12.367188-57.375 0-112.332031-24.207031-151.164062-66.472657-.816406-5.71875-1.25-11.5625-1.25-17.503906 0-11.78125 1.667969-23.179687 4.773438-33.976562 10.761718 11.683594 22.671874 22.273437 35.574218 31.546875 1.324219.953125 2.855469 1.414062 4.375 1.414062 2.332032 0 4.632813-1.085937 6.097656-3.125 2.421876-3.363281 1.652344-8.054687-1.710937-10.472656-14.191406-10.203125-27.109375-22.101563-38.488281-35.375 8.617187-19.308594 22.054687-36 38.785156-48.527344 33.226562 44.050781 85.21875 70.140625 140.605469 70.140625 17.203125 0 34.128906-2.464844 50.429687-7.335937 3.433594 11.308593 5.289063 23.296875 5.289063 35.710937 0 5.183594-.328125 10.292969-.953125 15.3125-22.035156 7.289063-45.054688 10.984375-68.5 10.984375-34.804688 0-68.066406-7.960937-98.863282-23.652343-3.695312-1.882813-8.214843-.414063-10.09375 3.277343-1.882812 3.691407-.414062 8.210938 3.277344 10.09375 32.925782 16.78125 68.480469 25.289063 105.679688 25.289063 22.226562 0 44.105468-3.121094 65.214844-9.269532-3.886719 14.402344-10.324219 27.765626-18.800782 39.574219zm-1.203125-144.867187 13.546875 23.09375c.050782.113281.101563.234375.152344.347656-14.609375 4.269531-29.769531 6.433594-45.175781 6.433594-50.335938 0-97.613281-23.5625-128.035157-63.398438 4.109376-2.355468 8.371094-4.484375 12.761719-6.363281l24.796875-7.597656c7.554688-1.457031 15.355469-2.234375 23.332032-2.234375 40.34375 0 76.207031 19.570312 98.621093 49.71875zm-230.96875-82.660156.539063-5.570313c.425781-4.414063 2.539062-8.394531 5.957031-11.214844 3.414063-2.820312 7.726563-4.132812 12.125-3.710937l25.996094 2.5c5.691406.546875 10.566406 3.96875 13.109375 8.839844l-19.882813 10.542968-30.0625 14.292969c-5.269531-3.273437-8.386719-9.351563-7.78125-15.679687zm-75.3125 79.871093c-1.789062.601563-3.742187.558594-5.507812-.121093l-6.175781-2.382813 97.882812-46.542969c.042969-.019531.082031-.039062.125-.0625l26.21875-12.464844.855469 2.132813 7.511719 18.714844zm93.578125 121.699219c39.738282 34.160156 90.726563 53.332031 143.628906 53.332031 17.179688 0 34.109376-1.96875 50.597657-5.851562-21.53125 18.589843-49.550781 29.84375-80.148438 29.84375-51.636719 0-95.933593-32.054688-114.078125-77.324219zm224.109375 37.398438c.457031-.476563.851563-1.003907 1.167969-1.574219 12.550781-17.113281 21.257812-37.21875 24.839844-59.027344.042968-.207031.078125-.417969.105468-.632813 1.132813-7.109374 1.730469-14.394531 1.730469-21.816406 0-2.21875-.058593-4.421875-.164062-6.617187l65.605469 111.851562-17.871094 17.738281h-122.949219c18.710937-9.558593 34.960937-23.277343 47.535156-39.921874zm96.71875 39.925781 9.300781-9.230469 27.472657-1.984375v11.214844zm0 0"/></svg>